<?xml version="1.0" encoding="UTF-8"?>
<svg version="1.1" xmlns="http://www.w3.org/2000/svg" width="180" height="180">
<path d="M0 0 C59.4 0 118.8 0 180 0 C180 59.4 180 118.8 180 180 C120.6 180 61.2 180 0 180 C0 120.6 0 61.2 0 0 Z " fill="#5542FE" transform="translate(0,0)"/>
<path d="M0 0 C-1.70856399 5.17778234 -4.7592189 9.43377681 -7.75 13.9375 C-8.93328348 15.73762969 -10.11553956 17.53843506 -11.296875 19.33984375 C-11.90853516 20.2716748 -12.52019531 21.20350586 -13.15039062 22.16357422 C-16.14105704 26.74984169 -19.07003902 31.37480619 -22 36 C-28.58744821 46.38519085 -35.27449529 56.70378993 -42 67 C-44.44040908 64.55959092 -44.50068677 63.27748338 -45.0703125 59.9140625 C-45.24433594 58.90085938 -45.41835937 57.88765625 -45.59765625 56.84375 C-45.77167969 55.7815625 -45.94570312 54.719375 -46.125 53.625 C-46.30675781 52.57054687 -46.48851562 51.51609375 -46.67578125 50.4296875 C-47.38888196 46.20469984 -48 42.29627403 -48 38 C-67.47 38 -86.94 38 -107 38 C-104.46790591 35.46790591 -102.42339854 35.02287295 -99 33.9375 C-97.63877072 33.49779958 -96.27814006 33.05624355 -94.91796875 32.61328125 C-94.14759277 32.36271973 -93.3772168 32.1121582 -92.58349609 31.85400391 C-87.47466949 30.16522339 -82.39546072 28.38978323 -77.3125 26.625 C-76.18827637 26.23513916 -75.06405273 25.84527832 -73.90576172 25.44360352 C-64.7324972 22.25981692 -55.56595402 19.05700884 -46.40332031 15.84277344 C-43.10564958 14.68637773 -39.80724951 13.5320706 -36.50878906 12.37792969 C-34.8518071 11.79808275 -33.19490449 11.21800899 -31.53808594 10.63769531 C-27.14923125 9.10064094 -22.75908568 7.56740082 -18.3671875 6.0390625 C-16.98853516 5.55856445 -16.98853516 5.55856445 -15.58203125 5.06835938 C-13.81157768 4.45138313 -12.04075861 3.83545445 -10.26953125 3.22070312 C-9.08037109 2.80594727 -9.08037109 2.80594727 -7.8671875 2.3828125 C-6.81700439 2.01760498 -6.81700439 2.01760498 -5.74560547 1.64501953 C-1.29371688 0 -1.29371688 0 0 0 Z " fill="#DBDAF2" transform="translate(140,32)"/>
<path d="M0 0 C1.98903754 2.98355632 2.45612944 4.52258393 3.0703125 7.96484375 C3.24433594 8.92970703 3.41835937 9.89457031 3.59765625 10.88867188 C3.77167969 11.89478516 3.94570312 12.90089844 4.125 13.9375 C4.30675781 14.93974609 4.48851562 15.94199219 4.67578125 16.97460938 C5.4039107 21.0778652 6 24.81799711 6 29 C25.14 29 44.28 29 64 29 C60.0476269 31.96427982 56.61206485 33.30655587 52 34.75 C50.37193708 35.27592573 48.7443491 35.80332349 47.1171875 36.33203125 C46.27381836 36.6048291 45.43044922 36.87762695 44.56152344 37.15869141 C40.39562913 38.52694072 36.26041965 39.98017812 32.125 41.4375 C31.40957031 41.68918945 30.69414063 41.94087891 29.95703125 42.20019531 C28.35504014 42.76393571 26.75307315 43.32774464 25.15112305 43.89160156 C24.11125244 44.25737305 23.07138184 44.62314453 22 45 C21.32297028 45.23819458 20.64594055 45.47638916 19.94839478 45.72180176 C6.80206311 50.34392097 -6.37194631 54.88079418 -19.5625 59.375 C-21.42124789 60.00904443 -23.27997193 60.64315878 -25.13867188 61.27734375 C-38.2940525 65.76468417 -38.2940525 65.76468417 -42 67 C-40.29143601 61.82221766 -37.2407811 57.56622319 -34.25 53.0625 C-33.06671652 51.26237031 -31.88446044 49.46156494 -30.703125 47.66015625 C-30.09146484 46.7283252 -29.47980469 45.79649414 -28.84960938 44.83642578 C-25.85894296 40.25015831 -22.92996098 35.62519381 -20 31 C-13.41255179 20.61480915 -6.72550471 10.29621007 0 0 Z " fill="#DDDCF2" transform="translate(82,81)"/>
<path d="M0 0 C0.33 0 0.66 0 1 0 C1 4.62 1 9.24 1 14 C-3.62 14 -8.24 14 -13 14 C-11.35 12.68 -9.7 11.36 -8 10 C-4.64944114 6.88876678 -2.26336339 3.96088594 0 0 Z " fill="#000000" transform="translate(179,166)"/>
<path d="M0 0 C1.32 1.65 2.64 3.3 4 5 C7.1916399 8.35531374 10.35257826 11.08206261 14 14 C9.38 14 4.76 14 0 14 C0 9.38 0 4.76 0 0 Z " fill="#000000" transform="translate(0,166)"/>
<path d="M0 0 C4.62 0 9.24 0 14 0 C14 4.62 14 9.24 14 14 C12.68 12.35 11.36 10.7 10 9 C6.8083601 5.64468626 3.64742174 2.91793739 0 0 Z " fill="#000000" transform="translate(166,0)"/>
<path d="M0 0 C4.62 0 9.24 0 14 0 C12.35 1.32 10.7 2.64 9 4 C5.64468626 7.1916399 2.91793739 10.35257826 0 14 C0 9.38 0 4.76 0 0 Z " fill="#000000" transform="translate(0,0)"/>
<path d="M0 0 C19.14 0 38.28 0 58 0 C54 3 54 3 51 3 C51 2.34 51 1.68 51 1 C34.17 1 17.34 1 0 1 C0 0.67 0 0.34 0 0 Z " fill="#C1BEF4" transform="translate(88,110)"/>
</svg>
